<svg width="231" height="237" viewBox="0 0 231 237" fill="none" xmlns="http://www.w3.org/2000/svg">
<rect width="231" height="237" rx="115.5" fill="white"/>
<path d="M81.0455 164V70.9091H119.5C126.47 70.9091 132.485 72.1667 137.545 74.6818C142.636 77.1667 146.561 80.7424 149.318 85.4091C152.076 90.0455 153.455 95.5455 153.455 101.909C153.455 108.364 152.045 113.848 149.227 118.364C146.409 122.848 142.409 126.273 137.227 128.636C132.045 130.97 125.909 132.136 118.818 132.136H94.5V114.409H114.636C118.03 114.409 120.864 113.97 123.136 113.091C125.439 112.182 127.182 110.818 128.364 109C129.545 107.152 130.136 104.788 130.136 101.909C130.136 99.0303 129.545 96.6515 128.364 94.7727C127.182 92.8636 125.439 91.4394 123.136 90.5C120.833 89.5303 118 89.0455 114.636 89.0455H103.545V164H81.0455ZM133.455 121.455L156.636 164H132.091L109.364 121.455H133.455Z" fill="black"/>
</svg>
